<?xml version="1.0" encoding="UTF-8" standalone="no"?>
<!DOCTYPE svg PUBLIC "-//W3C//DTD SVG 1.1//EN"
 "http://www.w3.org/Graphics/SVG/1.1/DTD/svg11.dtd">
<!-- Generated by graphviz version 2.40.1 (20161225.0304)
 -->
<!-- Title: G Pages: 1 -->
<svg width="330pt" height="317pt"
 viewBox="0.00 0.00 330.00 316.80" xmlns="http://www.w3.org/2000/svg" xmlns:xlink="http://www.w3.org/1999/xlink">
<g id="graph0" class="graph" transform="scale(1 1) rotate(0) translate(4 312.8)">
<title>G</title>
<polygon fill="#ffffff" stroke="transparent" points="-4,4 -4,-312.8 326,-312.8 326,4 -4,4"/>
<g id="clust1" class="cluster">
<title>cluster_2</title>
<polygon fill="none" stroke="#000000" points="8,-8 8,-300.8 314,-300.8 314,-8 8,-8"/>
<text text-anchor="middle" x="161" y="-284.2" font-family="Times,serif" font-size="14.00" fill="#000000">schema</text>
</g>
<!-- l1 -->
<g id="node1" class="node">
<title>l1</title>
<polygon fill="#d3d3d3" stroke="#000000" points="224,-268 170,-268 170,-232 224,-232 224,-268"/>
</g>
<!-- t1 -->
<g id="node5" class="node">
<title>t1</title>
<ellipse fill="none" stroke="#000000" cx="207" cy="-178" rx="27" ry="18"/>
</g>
<!-- l1&#45;&gt;t1 -->
<g id="edge2" class="edge">
<title>l1&#45;&gt;t1</title>
<path fill="none" stroke="#000000" d="M199.5234,-231.8314C200.5929,-224.131 201.8647,-214.9743 203.0532,-206.4166"/>
<polygon fill="#000000" stroke="#000000" points="206.5336,-206.7997 204.4426,-196.4133 199.6001,-205.8367 206.5336,-206.7997"/>
</g>
<!-- l2 -->
<g id="node2" class="node">
<title>l2</title>
<polygon fill="#d3d3d3" stroke="#000000" points="306,-268 252,-268 252,-232 306,-232 306,-268"/>
</g>
<!-- t7 -->
<g id="node11" class="node">
<title>t7</title>
<ellipse fill="none" stroke="#000000" cx="279" cy="-178" rx="27" ry="18"/>
</g>
<!-- l2&#45;&gt;t7 -->
<g id="edge3" class="edge">
<title>l2&#45;&gt;t7</title>
<path fill="none" stroke="#000000" d="M279,-231.8314C279,-224.131 279,-214.9743 279,-206.4166"/>
<polygon fill="#000000" stroke="#000000" points="282.5001,-206.4132 279,-196.4133 275.5001,-206.4133 282.5001,-206.4132"/>
</g>
<!-- l3 -->
<g id="node3" class="node">
<title>l3</title>
<polygon fill="#d3d3d3" stroke="#000000" points="142,-268 88,-268 88,-232 142,-232 142,-268"/>
</g>
<!-- t3 -->
<g id="node7" class="node">
<title>t3</title>
<ellipse fill="none" stroke="#000000" cx="115" cy="-178" rx="27" ry="18"/>
</g>
<!-- l3&#45;&gt;t3 -->
<g id="edge5" class="edge">
<title>l3&#45;&gt;t3</title>
<path fill="none" stroke="#000000" d="M115,-231.8314C115,-224.131 115,-214.9743 115,-206.4166"/>
<polygon fill="#000000" stroke="#000000" points="118.5001,-206.4132 115,-196.4133 111.5001,-206.4133 118.5001,-206.4132"/>
</g>
<!-- l4 -->
<g id="node4" class="node">
<title>l4</title>
<polygon fill="#d3d3d3" stroke="#000000" points="70,-268 16,-268 16,-232 70,-232 70,-268"/>
</g>
<!-- t9 -->
<g id="node13" class="node">
<title>t9</title>
<ellipse fill="none" stroke="#000000" cx="43" cy="-178" rx="27" ry="18"/>
</g>
<!-- l4&#45;&gt;t9 -->
<g id="edge1" class="edge">
<title>l4&#45;&gt;t9</title>
<path fill="none" stroke="#000000" d="M43,-231.8314C43,-224.131 43,-214.9743 43,-206.4166"/>
<polygon fill="#000000" stroke="#000000" points="46.5001,-206.4132 43,-196.4133 39.5001,-206.4133 46.5001,-206.4132"/>
</g>
<!-- t2 -->
<g id="node6" class="node">
<title>t2</title>
<ellipse fill="none" stroke="#000000" cx="279" cy="-106" rx="27" ry="18"/>
</g>
<!-- t1&#45;&gt;t2 -->
<g id="edge10" class="edge">
<title>t1&#45;&gt;t2</title>
<path fill="none" stroke="#000000" d="M222.2693,-162.7307C232.197,-152.803 245.3153,-139.6847 256.4363,-128.5637"/>
<polygon fill="#000000" stroke="#000000" points="259.1564,-130.7933 263.7527,-121.2473 254.2067,-125.8436 259.1564,-130.7933"/>
</g>
<!-- t4 -->
<g id="node8" class="node">
<title>t4</title>
<ellipse fill="none" stroke="#000000" cx="207" cy="-106" rx="27" ry="18"/>
</g>
<!-- t1&#45;&gt;t4 -->
<g id="edge8" class="edge">
<title>t1&#45;&gt;t4</title>
<path fill="none" stroke="#000000" d="M207,-159.8314C207,-152.131 207,-142.9743 207,-134.4166"/>
<polygon fill="#000000" stroke="#000000" points="210.5001,-134.4132 207,-124.4133 203.5001,-134.4133 210.5001,-134.4132"/>
</g>
<!-- t6 -->
<g id="node10" class="node">
<title>t6</title>
<ellipse fill="none" stroke="#000000" cx="115" cy="-106" rx="27" ry="18"/>
</g>
<!-- t3&#45;&gt;t6 -->
<g id="edge6" class="edge">
<title>t3&#45;&gt;t6</title>
<path fill="none" stroke="#000000" d="M115,-159.8314C115,-152.131 115,-142.9743 115,-134.4166"/>
<polygon fill="#000000" stroke="#000000" points="118.5001,-134.4132 115,-124.4133 111.5001,-134.4133 118.5001,-134.4132"/>
</g>
<!-- t5 -->
<g id="node9" class="node">
<title>t5</title>
<ellipse fill="none" stroke="#000000" cx="174" cy="-34" rx="27" ry="18"/>
</g>
<!-- t4&#45;&gt;t5 -->
<g id="edge9" class="edge">
<title>t4&#45;&gt;t5</title>
<path fill="none" stroke="#000000" d="M199.0116,-88.5708C195.1608,-80.1691 190.4583,-69.9091 186.1744,-60.5623"/>
<polygon fill="#000000" stroke="#000000" points="189.2631,-58.901 181.9148,-51.2687 182.8997,-61.8177 189.2631,-58.901"/>
</g>
<!-- t5&#45;&gt;l1 -->
<g id="edge12" class="edge">
<title>t5&#45;&gt;l1</title>
<path fill="none" stroke="#000000" d="M170.8387,-52.2715C166.2177,-82.5852 159.3593,-144.9899 171,-196 173.0856,-205.1394 176.9235,-214.534 181.0219,-222.8724"/>
<polygon fill="#000000" stroke="#000000" points="177.9405,-224.5328 185.6804,-231.7678 184.1417,-221.2853 177.9405,-224.5328"/>
</g>
<!-- t6&#45;&gt;t5 -->
<g id="edge7" class="edge">
<title>t6&#45;&gt;t5</title>
<path fill="none" stroke="#000000" d="M128.094,-90.0209C135.8089,-80.6061 145.7189,-68.5126 154.3555,-57.973"/>
<polygon fill="#000000" stroke="#000000" points="157.3115,-59.8877 160.9426,-49.9345 151.8971,-55.4509 157.3115,-59.8877"/>
</g>
<!-- t8 -->
<g id="node12" class="node">
<title>t8</title>
<ellipse fill="none" stroke="#000000" cx="102" cy="-34" rx="27" ry="18"/>
</g>
<!-- t6&#45;&gt;t8 -->
<g id="edge11" class="edge">
<title>t6&#45;&gt;t8</title>
<path fill="none" stroke="#000000" d="M111.7196,-87.8314C110.3078,-80.0125 108.625,-70.6923 107.0595,-62.0221"/>
<polygon fill="#000000" stroke="#000000" points="110.4556,-61.1324 105.2344,-51.9134 103.567,-62.3762 110.4556,-61.1324"/>
</g>
<!-- t7&#45;&gt;t2 -->
<g id="edge4" class="edge">
<title>t7&#45;&gt;t2</title>
<path fill="none" stroke="#000000" d="M279,-159.8314C279,-152.131 279,-142.9743 279,-134.4166"/>
<polygon fill="#000000" stroke="#000000" points="282.5001,-134.4132 279,-124.4133 275.5001,-134.4133 282.5001,-134.4132"/>
</g>
</g>
</svg>
